solid OpenSCAD_Model
  facet normal -1 0 0
    outer loop
      vertex -12.5 -12.5 0
      vertex -12.5 -12.5 10
      vertex -12.5 12.5 0
    endloop
  endfacet
  facet normal -1 0 0
    outer loop
      vertex -12.5 12.5 0
      vertex -12.5 -12.5 10
      vertex -12.5 12.5 10
    endloop
  endfacet
  facet normal 0 -1 0
    outer loop
      vertex -12.5 -12.5 10
      vertex -12.5 -12.5 0
      vertex 12.5 -12.5 0
    endloop
  endfacet
  facet normal 0 -1 0
    outer loop
      vertex 12.5 -12.5 10
      vertex -12.5 -12.5 10
      vertex 12.5 -12.5 0
    endloop
  endfacet
  facet normal 0 0 -1
    outer loop
      vertex 1.04529 9.94522 0
      vertex -12.5 12.5 0
      vertex 12.5 12.5 0
    endloop
  endfacet
  facet normal 0 0 -1
    outer loop
      vertex -12.5 -12.5 0
      vertex -12.5 12.5 0
      vertex -10 0 0
    endloop
  endfacet
  facet normal 0 0 -1
    outer loop
      vertex -12.5 -12.5 0
      vertex -10 0 0
      vertex -9.78148 -2.07912 0
    endloop
  endfacet
  facet normal 0 0 -1
    outer loop
      vertex -12.5 -12.5 0
      vertex -9.78148 -2.07912 0
      vertex -9.13546 -4.06737 0
    endloop
  endfacet
  facet normal 0 0 -1
    outer loop
      vertex -12.5 -12.5 0
      vertex -9.13546 -4.06737 0
      vertex -8.09017 -5.87785 0
    endloop
  endfacet
  facet normal 0 0 -1
    outer loop
      vertex -12.5 -12.5 0
      vertex -8.09017 -5.87785 0
      vertex -6.69131 -7.43145 0
    endloop
  endfacet
  facet normal 0 0 -1
    outer loop
      vertex -12.5 -12.5 0
      vertex -6.69131 -7.43145 0
      vertex -5 -8.66025 0
    endloop
  endfacet
  facet normal 0 0 -1
    outer loop
      vertex -12.5 -12.5 0
      vertex -5 -8.66025 0
      vertex -3.09017 -9.51056 0
    endloop
  endfacet
  facet normal 0 0 -1
    outer loop
      vertex -12.5 -12.5 0
      vertex -3.09017 -9.51056 0
      vertex -1.04529 -9.94522 0
    endloop
  endfacet
  facet normal 0 0 -1
    outer loop
      vertex -12.5 -12.5 0
      vertex -1.04529 -9.94522 0
      vertex 12.5 -12.5 0
    endloop
  endfacet
  facet normal 0 0 -1
    outer loop
      vertex 3.09017 -9.51056 0
      vertex 12.5 -12.5 0
      vertex 1.04529 -9.94522 0
    endloop
  endfacet
  facet normal 0 0 -1
    outer loop
      vertex 5 -8.66025 0
      vertex 12.5 -12.5 0
      vertex 3.09017 -9.51056 0
    endloop
  endfacet
  facet normal 0 0 -1
    outer loop
      vertex 6.69131 -7.43145 0
      vertex 12.5 -12.5 0
      vertex 5 -8.66025 0
    endloop
  endfacet
  facet normal 0 0 -1
    outer loop
      vertex 8.09017 -5.87785 0
      vertex 12.5 -12.5 0
      vertex 6.69131 -7.43145 0
    endloop
  endfacet
  facet normal 0 0 -1
    outer loop
      vertex 9.78148 2.07912 0
      vertex 12.5 12.5 0
      vertex 10 0 0
    endloop
  endfacet
  facet normal 0 0 -1
    outer loop
      vertex 12.5 -12.5 0
      vertex 8.09017 -5.87785 0
      vertex 9.13546 -4.06737 0
    endloop
  endfacet
  facet normal 0 0 -1
    outer loop
      vertex 12.5 -12.5 0
      vertex 9.13546 -4.06737 0
      vertex 9.78148 -2.07912 0
    endloop
  endfacet
  facet normal 0 0 -1
    outer loop
      vertex 12.5 -12.5 0
      vertex 9.78148 -2.07912 0
      vertex 12.5 12.5 0
    endloop
  endfacet
  facet normal 0 0 -1
    outer loop
      vertex 9.78148 -2.07912 0
      vertex 10 0 0
      vertex 12.5 12.5 0
    endloop
  endfacet
  facet normal 0 0 -1
    outer loop
      vertex -8.09017 5.87785 0
      vertex -12.5 12.5 0
      vertex -6.69131 7.43145 0
    endloop
  endfacet
  facet normal 0 0 -1
    outer loop
      vertex -1.04529 9.94522 0
      vertex -12.5 12.5 0
      vertex 1.04529 9.94522 0
    endloop
  endfacet
  facet normal 0 0 -1
    outer loop
      vertex 9.78148 2.07912 0
      vertex 9.13546 4.06737 0
      vertex 12.5 12.5 0
    endloop
  endfacet
  facet normal 0 0 -1
    outer loop
      vertex 9.13546 4.06737 0
      vertex 8.09017 5.87785 0
      vertex 12.5 12.5 0
    endloop
  endfacet
  facet normal 0 0 -1
    outer loop
      vertex -5 8.66025 0
      vertex -12.5 12.5 0
      vertex -3.09017 9.51056 0
    endloop
  endfacet
  facet normal 0 0 -1
    outer loop
      vertex 8.09017 5.87785 0
      vertex 6.69131 7.43145 0
      vertex 12.5 12.5 0
    endloop
  endfacet
  facet normal 0 0 -1
    outer loop
      vertex -3.09017 9.51056 0
      vertex -12.5 12.5 0
      vertex -1.04529 9.94522 0
    endloop
  endfacet
  facet normal 0 0 -1
    outer loop
      vertex 6.69131 7.43145 0
      vertex 5 8.66025 0
      vertex 12.5 12.5 0
    endloop
  endfacet
  facet normal 0 0 -1
    outer loop
      vertex 5 8.66025 0
      vertex 3.09017 9.51056 0
      vertex 12.5 12.5 0
    endloop
  endfacet
  facet normal 0 0 -1
    outer loop
      vertex 3.09017 9.51056 0
      vertex 1.04529 9.94522 0
      vertex 12.5 12.5 0
    endloop
  endfacet
  facet normal 0 0 -1
    outer loop
      vertex -6.69131 7.43145 0
      vertex -12.5 12.5 0
      vertex -5 8.66025 0
    endloop
  endfacet
  facet normal 0 0 -1
    outer loop
      vertex -9.13546 4.06737 0
      vertex -12.5 12.5 0
      vertex -8.09017 5.87785 0
    endloop
  endfacet
  facet normal 0 0 -1
    outer loop
      vertex -9.78148 2.07912 0
      vertex -12.5 12.5 0
      vertex -9.13546 4.06737 0
    endloop
  endfacet
  facet normal 0 0 -1
    outer loop
      vertex -10 0 0
      vertex -12.5 12.5 0
      vertex -9.78148 2.07912 0
    endloop
  endfacet
  facet normal 0 0 -1
    outer loop
      vertex 1.04529 -9.94522 0
      vertex 12.5 -12.5 0
      vertex -1.04529 -9.94522 0
    endloop
  endfacet
  facet normal 0 1 0
    outer loop
      vertex -12.5 12.5 0
      vertex -12.5 12.5 10
      vertex 12.5 12.5 0
    endloop
  endfacet
  facet normal 0 1 0
    outer loop
      vertex 12.5 12.5 0
      vertex -12.5 12.5 10
      vertex 12.5 12.5 10
    endloop
  endfacet
  facet normal 0 0 1
    outer loop
      vertex 1.14981 -10.9397 10
      vertex -12.5 -12.5 10
      vertex 12.5 -12.5 10
    endloop
  endfacet
  facet normal 0 0 1
    outer loop
      vertex 1.14981 -10.9397 10
      vertex -1.14981 -10.9397 10
      vertex -12.5 -12.5 10
    endloop
  endfacet
  facet normal 0 0 1
    outer loop
      vertex -12.5 12.5 10
      vertex -12.5 -12.5 10
      vertex -10.7596 -2.28703 10
    endloop
  endfacet
  facet normal 0 0 1
    outer loop
      vertex -12.5 12.5 10
      vertex -10.7596 -2.28703 10
      vertex -11 0 10
    endloop
  endfacet
  facet normal 0 0 1
    outer loop
      vertex -12.5 12.5 10
      vertex -11 0 10
      vertex -10.7596 2.28703 10
    endloop
  endfacet
  facet normal 0 0 1
    outer loop
      vertex -12.5 12.5 10
      vertex -10.7596 2.28703 10
      vertex -10.049 4.4741 10
    endloop
  endfacet
  facet normal 0 0 1
    outer loop
      vertex -1.14981 10.9397 10
      vertex 1.14981 10.9397 10
      vertex 12.5 12.5 10
    endloop
  endfacet
  facet normal 0 0 1
    outer loop
      vertex -12.5 12.5 10
      vertex -10.049 4.4741 10
      vertex -8.89919 6.46564 10
    endloop
  endfacet
  facet normal 0 0 1
    outer loop
      vertex -5.5 9.52628 10
      vertex -12.5 12.5 10
      vertex -7.36044 8.17459 10
    endloop
  endfacet
  facet normal 0 0 1
    outer loop
      vertex 11 0 10
      vertex 10.7596 -2.28703 10
      vertex 12.5 -12.5 10
    endloop
  endfacet
  facet normal 0 0 1
    outer loop
      vertex -3.39919 10.4616 10
      vertex -12.5 12.5 10
      vertex -5.5 9.52628 10
    endloop
  endfacet
  facet normal 0 0 1
    outer loop
      vertex -1.14981 10.9397 10
      vertex -12.5 12.5 10
      vertex -3.39919 10.4616 10
    endloop
  endfacet
  facet normal 0 0 1
    outer loop
      vertex 12.5 12.5 10
      vertex -12.5 12.5 10
      vertex -1.14981 10.9397 10
    endloop
  endfacet
  facet normal 0 0 1
    outer loop
      vertex 10.7596 -2.28703 10
      vertex 10.049 -4.4741 10
      vertex 12.5 -12.5 10
    endloop
  endfacet
  facet normal 0 0 1
    outer loop
      vertex 8.89919 -6.46564 10
      vertex 7.36044 -8.17459 10
      vertex 12.5 -12.5 10
    endloop
  endfacet
  facet normal 0 0 1
    outer loop
      vertex 12.5 12.5 10
      vertex 3.39919 10.4616 10
      vertex 5.5 9.52628 10
    endloop
  endfacet
  facet normal 0 0 1
    outer loop
      vertex 12.5 12.5 10
      vertex 5.5 9.52628 10
      vertex 7.36044 8.17459 10
    endloop
  endfacet
  facet normal 0 0 1
    outer loop
      vertex 10.049 -4.4741 10
      vertex 8.89919 -6.46564 10
      vertex 12.5 -12.5 10
    endloop
  endfacet
  facet normal 0 0 1
    outer loop
      vertex 12.5 12.5 10
      vertex 7.36044 8.17459 10
      vertex 8.89919 6.46564 10
    endloop
  endfacet
  facet normal 0 0 1
    outer loop
      vertex 12.5 12.5 10
      vertex 8.89919 6.46564 10
      vertex 10.049 4.4741 10
    endloop
  endfacet
  facet normal 0 0 1
    outer loop
      vertex 12.5 12.5 10
      vertex 10.7596 2.28703 10
      vertex 12.5 -12.5 10
    endloop
  endfacet
  facet normal 0 0 1
    outer loop
      vertex 12.5 12.5 10
      vertex 10.049 4.4741 10
      vertex 10.7596 2.28703 10
    endloop
  endfacet
  facet normal 0 0 1
    outer loop
      vertex 10.7596 2.28703 10
      vertex 11 0 10
      vertex 12.5 -12.5 10
    endloop
  endfacet
  facet normal 0 0 1
    outer loop
      vertex 5.5 -9.52628 10
      vertex 3.39919 -10.4616 10
      vertex 12.5 -12.5 10
    endloop
  endfacet
  facet normal 0 0 1
    outer loop
      vertex 3.39919 -10.4616 10
      vertex 1.14981 -10.9397 10
      vertex 12.5 -12.5 10
    endloop
  endfacet
  facet normal 0 0 1
    outer loop
      vertex -1.14981 -10.9397 10
      vertex -3.39919 -10.4616 10
      vertex -12.5 -12.5 10
    endloop
  endfacet
  facet normal 0 0 1
    outer loop
      vertex -5.5 -9.52628 10
      vertex -12.5 -12.5 10
      vertex -3.39919 -10.4616 10
    endloop
  endfacet
  facet normal 0 0 1
    outer loop
      vertex -7.36044 -8.17459 10
      vertex -12.5 -12.5 10
      vertex -5.5 -9.52628 10
    endloop
  endfacet
  facet normal 0 0 1
    outer loop
      vertex -8.89919 -6.46564 10
      vertex -12.5 -12.5 10
      vertex -7.36044 -8.17459 10
    endloop
  endfacet
  facet normal 0 0 1
    outer loop
      vertex -10.049 -4.4741 10
      vertex -12.5 -12.5 10
      vertex -8.89919 -6.46564 10
    endloop
  endfacet
  facet normal 0 0 1
    outer loop
      vertex -10.7596 -2.28703 10
      vertex -12.5 -12.5 10
      vertex -10.049 -4.4741 10
    endloop
  endfacet
  facet normal 0 0 1
    outer loop
      vertex -8.89919 6.46564 10
      vertex -7.36044 8.17459 10
      vertex -12.5 12.5 10
    endloop
  endfacet
  facet normal 0 0 1
    outer loop
      vertex 1.14981 10.9397 10
      vertex 3.39919 10.4616 10
      vertex 12.5 12.5 10
    endloop
  endfacet
  facet normal 0 0 1
    outer loop
      vertex 7.36044 -8.17459 10
      vertex 5.5 -9.52628 10
      vertex 12.5 -12.5 10
    endloop
  endfacet
  facet normal 1 0 0
    outer loop
      vertex 12.5 -12.5 10
      vertex 12.5 -12.5 0
      vertex 12.5 12.5 0
    endloop
  endfacet
  facet normal 1 0 0
    outer loop
      vertex 12.5 12.5 10
      vertex 12.5 -12.5 10
      vertex 12.5 12.5 0
    endloop
  endfacet
  facet normal 0.994522 -0.104528 0
    outer loop
      vertex -9.78148 2.07912 0
      vertex -9.78148 2.07912 4
      vertex -10 0 4
    endloop
  endfacet
  facet normal 0.994522 -0.104528 0
    outer loop
      vertex -10 0 0
      vertex -9.78148 2.07912 0
      vertex -10 0 4
    endloop
  endfacet
  facet normal 0.994522 0.104528 0
    outer loop
      vertex -10 0 4
      vertex -9.78148 -2.07912 4
      vertex -9.78148 -2.07912 0
    endloop
  endfacet
  facet normal 0.994522 0.104528 0
    outer loop
      vertex -10 0 0
      vertex -10 0 4
      vertex -9.78148 -2.07912 0
    endloop
  endfacet
  facet normal 0.951057 -0.309017 0
    outer loop
      vertex -9.13546 4.06737 0
      vertex -9.13546 4.06737 4
      vertex -9.78148 2.07912 4
    endloop
  endfacet
  facet normal 0.951057 -0.309017 0
    outer loop
      vertex -9.78148 2.07912 0
      vertex -9.13546 4.06737 0
      vertex -9.78148 2.07912 4
    endloop
  endfacet
  facet normal 0.866025 -0.5 0
    outer loop
      vertex -8.09017 5.87785 0
      vertex -8.09017 5.87785 4
      vertex -9.13546 4.06737 4
    endloop
  endfacet
  facet normal 0.866025 -0.5 0
    outer loop
      vertex -9.13546 4.06737 0
      vertex -8.09017 5.87785 0
      vertex -9.13546 4.06737 4
    endloop
  endfacet
  facet normal 0.743145 -0.669131 0
    outer loop
      vertex -6.69131 7.43145 0
      vertex -6.69131 7.43145 4
      vertex -8.09017 5.87785 4
    endloop
  endfacet
  facet normal 0.743145 -0.669131 0
    outer loop
      vertex -8.09017 5.87785 0
      vertex -6.69131 7.43145 0
      vertex -8.09017 5.87785 4
    endloop
  endfacet
  facet normal 0.587785 -0.809017 0
    outer loop
      vertex -5 8.66025 0
      vertex -5 8.66025 4
      vertex -6.69131 7.43145 4
    endloop
  endfacet
  facet normal 0.587785 -0.809017 0
    outer loop
      vertex -6.69131 7.43145 0
      vertex -5 8.66025 0
      vertex -6.69131 7.43145 4
    endloop
  endfacet
  facet normal 0.406737 -0.913545 0
    outer loop
      vertex -3.09017 9.51056 0
      vertex -3.09017 9.51056 4
      vertex -5 8.66025 4
    endloop
  endfacet
  facet normal 0.406737 -0.913545 0
    outer loop
      vertex -5 8.66025 0
      vertex -3.09017 9.51056 0
      vertex -5 8.66025 4
    endloop
  endfacet
  facet normal 0.207912 -0.978148 0
    outer loop
      vertex -1.04529 9.94522 0
      vertex -1.04529 9.94522 4
      vertex -3.09017 9.51056 4
    endloop
  endfacet
  facet normal 0.207912 -0.978148 0
    outer loop
      vertex -3.09017 9.51056 0
      vertex -1.04529 9.94522 0
      vertex -3.09017 9.51056 4
    endloop
  endfacet
  facet normal 0 -1 0
    outer loop
      vertex 1.04529 9.94522 0
      vertex 1.04529 9.94522 4
      vertex -1.04529 9.94522 4
    endloop
  endfacet
  facet normal 0 -1 0
    outer loop
      vertex -1.04529 9.94522 0
      vertex 1.04529 9.94522 0
      vertex -1.04529 9.94522 4
    endloop
  endfacet
  facet normal -0.207912 -0.978148 0
    outer loop
      vertex 3.09017 9.51056 0
      vertex 3.09017 9.51056 4
      vertex 1.04529 9.94522 4
    endloop
  endfacet
  facet normal -0.207912 -0.978148 0
    outer loop
      vertex 1.04529 9.94522 0
      vertex 3.09017 9.51056 0
      vertex 1.04529 9.94522 4
    endloop
  endfacet
  facet normal -0.406737 -0.913545 0
    outer loop
      vertex 5 8.66025 0
      vertex 5 8.66025 4
      vertex 3.09017 9.51056 4
    endloop
  endfacet
  facet normal -0.406737 -0.913545 0
    outer loop
      vertex 3.09017 9.51056 0
      vertex 5 8.66025 0
      vertex 3.09017 9.51056 4
    endloop
  endfacet
  facet normal -0.587785 -0.809017 0
    outer loop
      vertex 6.69131 7.43145 0
      vertex 6.69131 7.43145 4
      vertex 5 8.66025 4
    endloop
  endfacet
  facet normal -0.587785 -0.809017 0
    outer loop
      vertex 5 8.66025 0
      vertex 6.69131 7.43145 0
      vertex 5 8.66025 4
    endloop
  endfacet
  facet normal -0.743145 -0.669131 0
    outer loop
      vertex 8.09017 5.87785 4
      vertex 6.69131 7.43145 4
      vertex 8.09017 5.87785 0
    endloop
  endfacet
  facet normal -0.743145 -0.669131 0
    outer loop
      vertex 8.09017 5.87785 0
      vertex 6.69131 7.43145 4
      vertex 6.69131 7.43145 0
    endloop
  endfacet
  facet normal -0.866025 -0.5 0
    outer loop
      vertex 9.13546 4.06737 4
      vertex 8.09017 5.87785 4
      vertex 9.13546 4.06737 0
    endloop
  endfacet
  facet normal -0.866025 -0.5 0
    outer loop
      vertex 9.13546 4.06737 0
      vertex 8.09017 5.87785 4
      vertex 8.09017 5.87785 0
    endloop
  endfacet
  facet normal -0.951057 -0.309017 0
    outer loop
      vertex 9.78148 2.07912 4
      vertex 9.13546 4.06737 4
      vertex 9.78148 2.07912 0
    endloop
  endfacet
  facet normal -0.951057 -0.309017 0
    outer loop
      vertex 9.78148 2.07912 0
      vertex 9.13546 4.06737 4
      vertex 9.13546 4.06737 0
    endloop
  endfacet
  facet normal -0.994522 -0.104528 0
    outer loop
      vertex 10 0 4
      vertex 9.78148 2.07912 4
      vertex 10 0 0
    endloop
  endfacet
  facet normal -0.994522 -0.104528 0
    outer loop
      vertex 10 0 0
      vertex 9.78148 2.07912 4
      vertex 9.78148 2.07912 0
    endloop
  endfacet
  facet normal -0.994522 0.104528 0
    outer loop
      vertex 10 0 4
      vertex 10 0 0
      vertex 9.78148 -2.07912 4
    endloop
  endfacet
  facet normal -0.994522 0.104528 0
    outer loop
      vertex 9.78148 -2.07912 4
      vertex 10 0 0
      vertex 9.78148 -2.07912 0
    endloop
  endfacet
  facet normal -0.951057 0.309017 0
    outer loop
      vertex 9.78148 -2.07912 4
      vertex 9.78148 -2.07912 0
      vertex 9.13546 -4.06737 4
    endloop
  endfacet
  facet normal -0.951057 0.309017 0
    outer loop
      vertex 9.13546 -4.06737 4
      vertex 9.78148 -2.07912 0
      vertex 9.13546 -4.06737 0
    endloop
  endfacet
  facet normal -0.866025 0.5 0
    outer loop
      vertex 9.13546 -4.06737 4
      vertex 9.13546 -4.06737 0
      vertex 8.09017 -5.87785 4
    endloop
  endfacet
  facet normal -0.866025 0.5 0
    outer loop
      vertex 8.09017 -5.87785 4
      vertex 9.13546 -4.06737 0
      vertex 8.09017 -5.87785 0
    endloop
  endfacet
  facet normal -0.743145 0.669131 0
    outer loop
      vertex 8.09017 -5.87785 4
      vertex 8.09017 -5.87785 0
      vertex 6.69131 -7.43145 4
    endloop
  endfacet
  facet normal -0.743145 0.669131 0
    outer loop
      vertex 6.69131 -7.43145 4
      vertex 8.09017 -5.87785 0
      vertex 6.69131 -7.43145 0
    endloop
  endfacet
  facet normal -0.587785 0.809017 0
    outer loop
      vertex 6.69131 -7.43145 4
      vertex 6.69131 -7.43145 0
      vertex 5 -8.66025 4
    endloop
  endfacet
  facet normal -0.587785 0.809017 0
    outer loop
      vertex 5 -8.66025 4
      vertex 6.69131 -7.43145 0
      vertex 5 -8.66025 0
    endloop
  endfacet
  facet normal -0.406737 0.913545 0
    outer loop
      vertex 5 -8.66025 4
      vertex 5 -8.66025 0
      vertex 3.09017 -9.51056 4
    endloop
  endfacet
  facet normal -0.406737 0.913545 0
    outer loop
      vertex 3.09017 -9.51056 4
      vertex 5 -8.66025 0
      vertex 3.09017 -9.51056 0
    endloop
  endfacet
  facet normal -0.207912 0.978148 0
    outer loop
      vertex 3.09017 -9.51056 4
      vertex 3.09017 -9.51056 0
      vertex 1.04529 -9.94522 4
    endloop
  endfacet
  facet normal -0.207912 0.978148 0
    outer loop
      vertex 1.04529 -9.94522 4
      vertex 3.09017 -9.51056 0
      vertex 1.04529 -9.94522 0
    endloop
  endfacet
  facet normal 0 1 0
    outer loop
      vertex 1.04529 -9.94522 4
      vertex 1.04529 -9.94522 0
      vertex -1.04529 -9.94522 4
    endloop
  endfacet
  facet normal 0 1 0
    outer loop
      vertex -1.04529 -9.94522 4
      vertex 1.04529 -9.94522 0
      vertex -1.04529 -9.94522 0
    endloop
  endfacet
  facet normal 0.207912 0.978148 0
    outer loop
      vertex -1.04529 -9.94522 4
      vertex -1.04529 -9.94522 0
      vertex -3.09017 -9.51056 4
    endloop
  endfacet
  facet normal 0.207912 0.978148 0
    outer loop
      vertex -3.09017 -9.51056 4
      vertex -1.04529 -9.94522 0
      vertex -3.09017 -9.51056 0
    endloop
  endfacet
  facet normal 0.406737 0.913545 0
    outer loop
      vertex -3.09017 -9.51056 4
      vertex -3.09017 -9.51056 0
      vertex -5 -8.66025 4
    endloop
  endfacet
  facet normal 0.406737 0.913545 0
    outer loop
      vertex -5 -8.66025 4
      vertex -3.09017 -9.51056 0
      vertex -5 -8.66025 0
    endloop
  endfacet
  facet normal 0.587785 0.809017 0
    outer loop
      vertex -5 -8.66025 4
      vertex -5 -8.66025 0
      vertex -6.69131 -7.43145 4
    endloop
  endfacet
  facet normal 0.587785 0.809017 0
    outer loop
      vertex -6.69131 -7.43145 4
      vertex -5 -8.66025 0
      vertex -6.69131 -7.43145 0
    endloop
  endfacet
  facet normal 0.743145 0.669131 0
    outer loop
      vertex -8.09017 -5.87785 4
      vertex -6.69131 -7.43145 4
      vertex -6.69131 -7.43145 0
    endloop
  endfacet
  facet normal 0.743145 0.669131 0
    outer loop
      vertex -8.09017 -5.87785 0
      vertex -8.09017 -5.87785 4
      vertex -6.69131 -7.43145 0
    endloop
  endfacet
  facet normal 0.866025 0.5 0
    outer loop
      vertex -9.13546 -4.06737 4
      vertex -8.09017 -5.87785 4
      vertex -8.09017 -5.87785 0
    endloop
  endfacet
  facet normal 0.866025 0.5 0
    outer loop
      vertex -9.13546 -4.06737 0
      vertex -9.13546 -4.06737 4
      vertex -8.09017 -5.87785 0
    endloop
  endfacet
  facet normal 0.951057 0.309017 0
    outer loop
      vertex -9.78148 -2.07912 4
      vertex -9.13546 -4.06737 4
      vertex -9.13546 -4.06737 0
    endloop
  endfacet
  facet normal 0.951057 0.309017 0
    outer loop
      vertex -9.78148 -2.07912 0
      vertex -9.78148 -2.07912 4
      vertex -9.13546 -4.06737 0
    endloop
  endfacet
  facet normal 0.994522 0.104528 0
    outer loop
      vertex -11 0 10
      vertex -10.7596 -2.28703 10
      vertex -10.7596 -2.28703 4
    endloop
  endfacet
  facet normal 0.994522 0.104528 0
    outer loop
      vertex -11 0 4
      vertex -11 0 10
      vertex -10.7596 -2.28703 4
    endloop
  endfacet
  facet normal 0.951056 0.309017 0
    outer loop
      vertex -10.7596 -2.28703 10
      vertex -10.049 -4.4741 10
      vertex -10.049 -4.4741 4
    endloop
  endfacet
  facet normal 0.951056 0.309017 0
    outer loop
      vertex -10.7596 -2.28703 4
      vertex -10.7596 -2.28703 10
      vertex -10.049 -4.4741 4
    endloop
  endfacet
  facet normal 0.866025 0.5 0
    outer loop
      vertex -10.049 -4.4741 10
      vertex -8.89919 -6.46564 10
      vertex -8.89919 -6.46564 4
    endloop
  endfacet
  facet normal 0.866025 0.5 0
    outer loop
      vertex -10.049 -4.4741 4
      vertex -10.049 -4.4741 10
      vertex -8.89919 -6.46564 4
    endloop
  endfacet
  facet normal 0.743145 0.669131 0
    outer loop
      vertex -8.89919 -6.46564 10
      vertex -7.36044 -8.17459 10
      vertex -7.36044 -8.17459 4
    endloop
  endfacet
  facet normal 0.743145 0.669131 0
    outer loop
      vertex -8.89919 -6.46564 4
      vertex -8.89919 -6.46564 10
      vertex -7.36044 -8.17459 4
    endloop
  endfacet
  facet normal 0.587785 0.809017 0
    outer loop
      vertex -5.5 -9.52628 10
      vertex -5.5 -9.52628 4
      vertex -7.36044 -8.17459 10
    endloop
  endfacet
  facet normal 0.587785 0.809017 0
    outer loop
      vertex -7.36044 -8.17459 10
      vertex -5.5 -9.52628 4
      vertex -7.36044 -8.17459 4
    endloop
  endfacet
  facet normal 0.406737 0.913545 0
    outer loop
      vertex -3.39919 -10.4616 10
      vertex -3.39919 -10.4616 4
      vertex -5.5 -9.52628 10
    endloop
  endfacet
  facet normal 0.406737 0.913545 0
    outer loop
      vertex -5.5 -9.52628 10
      vertex -3.39919 -10.4616 4
      vertex -5.5 -9.52628 4
    endloop
  endfacet
  facet normal 0.207912 0.978148 0
    outer loop
      vertex -1.14981 -10.9397 10
      vertex -1.14981 -10.9397 4
      vertex -3.39919 -10.4616 10
    endloop
  endfacet
  facet normal 0.207912 0.978148 0
    outer loop
      vertex -3.39919 -10.4616 10
      vertex -1.14981 -10.9397 4
      vertex -3.39919 -10.4616 4
    endloop
  endfacet
  facet normal 0 1 0
    outer loop
      vertex 1.14981 -10.9397 10
      vertex 1.14981 -10.9397 4
      vertex -1.14981 -10.9397 10
    endloop
  endfacet
  facet normal 0 1 0
    outer loop
      vertex -1.14981 -10.9397 10
      vertex 1.14981 -10.9397 4
      vertex -1.14981 -10.9397 4
    endloop
  endfacet
  facet normal -0.207912 0.978148 0
    outer loop
      vertex 3.39919 -10.4616 10
      vertex 3.39919 -10.4616 4
      vertex 1.14981 -10.9397 10
    endloop
  endfacet
  facet normal -0.207912 0.978148 0
    outer loop
      vertex 1.14981 -10.9397 10
      vertex 3.39919 -10.4616 4
      vertex 1.14981 -10.9397 4
    endloop
  endfacet
  facet normal -0.406737 0.913545 0
    outer loop
      vertex 5.5 -9.52628 10
      vertex 5.5 -9.52628 4
      vertex 3.39919 -10.4616 10
    endloop
  endfacet
  facet normal -0.406737 0.913545 0
    outer loop
      vertex 3.39919 -10.4616 10
      vertex 5.5 -9.52628 4
      vertex 3.39919 -10.4616 4
    endloop
  endfacet
  facet normal -0.587785 0.809017 0
    outer loop
      vertex 7.36044 -8.17459 10
      vertex 7.36044 -8.17459 4
      vertex 5.5 -9.52628 10
    endloop
  endfacet
  facet normal -0.587785 0.809017 0
    outer loop
      vertex 5.5 -9.52628 10
      vertex 7.36044 -8.17459 4
      vertex 5.5 -9.52628 4
    endloop
  endfacet
  facet normal -0.743145 0.669131 0
    outer loop
      vertex 8.89919 -6.46564 10
      vertex 8.89919 -6.46564 4
      vertex 7.36044 -8.17459 10
    endloop
  endfacet
  facet normal -0.743145 0.669131 0
    outer loop
      vertex 7.36044 -8.17459 10
      vertex 8.89919 -6.46564 4
      vertex 7.36044 -8.17459 4
    endloop
  endfacet
  facet normal -0.866025 0.5 0
    outer loop
      vertex 10.049 -4.4741 10
      vertex 10.049 -4.4741 4
      vertex 8.89919 -6.46564 10
    endloop
  endfacet
  facet normal -0.866025 0.5 0
    outer loop
      vertex 8.89919 -6.46564 10
      vertex 10.049 -4.4741 4
      vertex 8.89919 -6.46564 4
    endloop
  endfacet
  facet normal -0.951056 0.309017 0
    outer loop
      vertex 10.7596 -2.28703 10
      vertex 10.7596 -2.28703 4
      vertex 10.049 -4.4741 10
    endloop
  endfacet
  facet normal -0.951056 0.309017 0
    outer loop
      vertex 10.049 -4.4741 10
      vertex 10.7596 -2.28703 4
      vertex 10.049 -4.4741 4
    endloop
  endfacet
  facet normal -0.994522 0.104528 0
    outer loop
      vertex 11 0 10
      vertex 11 0 4
      vertex 10.7596 -2.28703 10
    endloop
  endfacet
  facet normal -0.994522 0.104528 0
    outer loop
      vertex 10.7596 -2.28703 10
      vertex 11 0 4
      vertex 10.7596 -2.28703 4
    endloop
  endfacet
  facet normal -0.994522 -0.104528 0
    outer loop
      vertex 11 0 10
      vertex 10.7596 2.28703 10
      vertex 11 0 4
    endloop
  endfacet
  facet normal -0.994522 -0.104528 0
    outer loop
      vertex 11 0 4
      vertex 10.7596 2.28703 10
      vertex 10.7596 2.28703 4
    endloop
  endfacet
  facet normal -0.951056 -0.309017 0
    outer loop
      vertex 10.7596 2.28703 10
      vertex 10.049 4.4741 10
      vertex 10.7596 2.28703 4
    endloop
  endfacet
  facet normal -0.951056 -0.309017 0
    outer loop
      vertex 10.7596 2.28703 4
      vertex 10.049 4.4741 10
      vertex 10.049 4.4741 4
    endloop
  endfacet
  facet normal -0.866025 -0.5 0
    outer loop
      vertex 10.049 4.4741 10
      vertex 8.89919 6.46564 10
      vertex 10.049 4.4741 4
    endloop
  endfacet
  facet normal -0.866025 -0.5 0
    outer loop
      vertex 10.049 4.4741 4
      vertex 8.89919 6.46564 10
      vertex 8.89919 6.46564 4
    endloop
  endfacet
  facet normal -0.743145 -0.669131 0
    outer loop
      vertex 8.89919 6.46564 10
      vertex 7.36044 8.17459 10
      vertex 8.89919 6.46564 4
    endloop
  endfacet
  facet normal -0.743145 -0.669131 0
    outer loop
      vertex 8.89919 6.46564 4
      vertex 7.36044 8.17459 10
      vertex 7.36044 8.17459 4
    endloop
  endfacet
  facet normal -0.587785 -0.809017 0
    outer loop
      vertex 7.36044 8.17459 4
      vertex 7.36044 8.17459 10
      vertex 5.5 9.52628 10
    endloop
  endfacet
  facet normal -0.587785 -0.809017 0
    outer loop
      vertex 5.5 9.52628 4
      vertex 7.36044 8.17459 4
      vertex 5.5 9.52628 10
    endloop
  endfacet
  facet normal -0.406737 -0.913545 0
    outer loop
      vertex 5.5 9.52628 4
      vertex 5.5 9.52628 10
      vertex 3.39919 10.4616 10
    endloop
  endfacet
  facet normal -0.406737 -0.913545 0
    outer loop
      vertex 3.39919 10.4616 4
      vertex 5.5 9.52628 4
      vertex 3.39919 10.4616 10
    endloop
  endfacet
  facet normal -0.207912 -0.978148 0
    outer loop
      vertex 3.39919 10.4616 4
      vertex 3.39919 10.4616 10
      vertex 1.14981 10.9397 10
    endloop
  endfacet
  facet normal -0.207912 -0.978148 0
    outer loop
      vertex 1.14981 10.9397 4
      vertex 3.39919 10.4616 4
      vertex 1.14981 10.9397 10
    endloop
  endfacet
  facet normal 0 -1 0
    outer loop
      vertex 1.14981 10.9397 4
      vertex 1.14981 10.9397 10
      vertex -1.14981 10.9397 10
    endloop
  endfacet
  facet normal 0 -1 0
    outer loop
      vertex -1.14981 10.9397 4
      vertex 1.14981 10.9397 4
      vertex -1.14981 10.9397 10
    endloop
  endfacet
  facet normal 0.207912 -0.978148 0
    outer loop
      vertex -1.14981 10.9397 4
      vertex -1.14981 10.9397 10
      vertex -3.39919 10.4616 10
    endloop
  endfacet
  facet normal 0.207912 -0.978148 0
    outer loop
      vertex -3.39919 10.4616 4
      vertex -1.14981 10.9397 4
      vertex -3.39919 10.4616 10
    endloop
  endfacet
  facet normal 0.406737 -0.913545 0
    outer loop
      vertex -3.39919 10.4616 4
      vertex -3.39919 10.4616 10
      vertex -5.5 9.52628 10
    endloop
  endfacet
  facet normal 0.406737 -0.913545 0
    outer loop
      vertex -5.5 9.52628 4
      vertex -3.39919 10.4616 4
      vertex -5.5 9.52628 10
    endloop
  endfacet
  facet normal 0.587785 -0.809017 0
    outer loop
      vertex -5.5 9.52628 4
      vertex -5.5 9.52628 10
      vertex -7.36044 8.17459 10
    endloop
  endfacet
  facet normal 0.587785 -0.809017 0
    outer loop
      vertex -7.36044 8.17459 4
      vertex -5.5 9.52628 4
      vertex -7.36044 8.17459 10
    endloop
  endfacet
  facet normal 0.743145 -0.669131 0
    outer loop
      vertex -7.36044 8.17459 4
      vertex -7.36044 8.17459 10
      vertex -8.89919 6.46564 10
    endloop
  endfacet
  facet normal 0.743145 -0.669131 0
    outer loop
      vertex -8.89919 6.46564 4
      vertex -7.36044 8.17459 4
      vertex -8.89919 6.46564 10
    endloop
  endfacet
  facet normal 0.866025 -0.5 0
    outer loop
      vertex -8.89919 6.46564 4
      vertex -8.89919 6.46564 10
      vertex -10.049 4.4741 10
    endloop
  endfacet
  facet normal 0.866025 -0.5 0
    outer loop
      vertex -10.049 4.4741 4
      vertex -8.89919 6.46564 4
      vertex -10.049 4.4741 10
    endloop
  endfacet
  facet normal 0.951056 -0.309017 0
    outer loop
      vertex -10.049 4.4741 4
      vertex -10.049 4.4741 10
      vertex -10.7596 2.28703 10
    endloop
  endfacet
  facet normal 0.951056 -0.309017 0
    outer loop
      vertex -10.7596 2.28703 4
      vertex -10.049 4.4741 4
      vertex -10.7596 2.28703 10
    endloop
  endfacet
  facet normal 0.994522 -0.104528 0
    outer loop
      vertex -10.7596 2.28703 4
      vertex -10.7596 2.28703 10
      vertex -11 0 10
    endloop
  endfacet
  facet normal 0.994522 -0.104528 0
    outer loop
      vertex -11 0 4
      vertex -10.7596 2.28703 4
      vertex -11 0 10
    endloop
  endfacet
  facet normal 0 0 1
    outer loop
      vertex -10.7596 -2.28703 4
      vertex -10.049 -4.4741 4
      vertex -8.89919 -6.46564 4
    endloop
  endfacet
  facet normal 0 0 1
    outer loop
      vertex -5.5 -9.52628 4
      vertex -10.7596 -2.28703 4
      vertex -7.36044 -8.17459 4
    endloop
  endfacet
  facet normal 0 0 1
    outer loop
      vertex -7.36044 -8.17459 4
      vertex -10.7596 -2.28703 4
      vertex -8.89919 -6.46564 4
    endloop
  endfacet
  facet normal 0 0 1
    outer loop
      vertex -8.09017 -5.87785 4
      vertex -10.7596 -2.28703 4
      vertex -5.5 -9.52628 4
    endloop
  endfacet
  facet normal 0 0 1
    outer loop
      vertex -5 -8.66025 4
      vertex -6.69131 -7.43145 4
      vertex -3.39919 -10.4616 4
    endloop
  endfacet
  facet normal 0 0 1
    outer loop
      vertex -1.04529 -9.94522 4
      vertex -3.09017 -9.51056 4
      vertex -1.14981 -10.9397 4
    endloop
  endfacet
  facet normal 0 0 1
    outer loop
      vertex 1.04529 -9.94522 4
      vertex -1.04529 -9.94522 4
      vertex 1.14981 -10.9397 4
    endloop
  endfacet
  facet normal 0 0 1
    outer loop
      vertex 3.09017 -9.51056 4
      vertex 1.04529 -9.94522 4
      vertex 3.39919 -10.4616 4
    endloop
  endfacet
  facet normal 0 0 1
    outer loop
      vertex 5 -8.66025 4
      vertex 3.09017 -9.51056 4
      vertex 5.5 -9.52628 4
    endloop
  endfacet
  facet normal 0 0 1
    outer loop
      vertex 6.69131 -7.43145 4
      vertex 5 -8.66025 4
      vertex 7.36044 -8.17459 4
    endloop
  endfacet
  facet normal 0 0 1
    outer loop
      vertex 8.09017 -5.87785 4
      vertex 6.69131 -7.43145 4
      vertex 8.89919 -6.46564 4
    endloop
  endfacet
  facet normal 0 0 1
    outer loop
      vertex 9.13546 -4.06737 4
      vertex 8.09017 -5.87785 4
      vertex 10.049 -4.4741 4
    endloop
  endfacet
  facet normal 0 0 1
    outer loop
      vertex 9.78148 -2.07912 4
      vertex 9.13546 -4.06737 4
      vertex 10.7596 -2.28703 4
    endloop
  endfacet
  facet normal 0 0 1
    outer loop
      vertex 10 0 4
      vertex 9.78148 -2.07912 4
      vertex 11 0 4
    endloop
  endfacet
  facet normal 0 0 1
    outer loop
      vertex -9.13546 4.06737 4
      vertex -8.09017 5.87785 4
      vertex -7.36044 8.17459 4
    endloop
  endfacet
  facet normal 0 0 1
    outer loop
      vertex -6.69131 7.43145 4
      vertex -5 8.66025 4
      vertex -5.5 9.52628 4
    endloop
  endfacet
  facet normal 0 0 1
    outer loop
      vertex -10.049 4.4741 4
      vertex -10.7596 -2.28703 4
      vertex -8.89919 6.46564 4
    endloop
  endfacet
  facet normal 0 0 1
    outer loop
      vertex -10.7596 2.28703 4
      vertex -10.7596 -2.28703 4
      vertex -10.049 4.4741 4
    endloop
  endfacet
  facet normal 0 0 1
    outer loop
      vertex -11 0 4
      vertex -10.7596 -2.28703 4
      vertex -10.7596 2.28703 4
    endloop
  endfacet
  facet normal 0 0 1
    outer loop
      vertex -5 8.66025 4
      vertex -3.09017 9.51056 4
      vertex -3.39919 10.4616 4
    endloop
  endfacet
  facet normal 0 0 1
    outer loop
      vertex 9.13546 4.06737 4
      vertex 9.78148 2.07912 4
      vertex 10.7596 2.28703 4
    endloop
  endfacet
  facet normal 0 0 1
    outer loop
      vertex -8.89919 6.46564 4
      vertex -10.7596 -2.28703 4
      vertex -9.78148 2.07912 4
    endloop
  endfacet
  facet normal 0 0 1
    outer loop
      vertex -8.89919 6.46564 4
      vertex -9.13546 4.06737 4
      vertex -7.36044 8.17459 4
    endloop
  endfacet
  facet normal 0 0 1
    outer loop
      vertex -8.89919 6.46564 4
      vertex -9.78148 2.07912 4
      vertex -9.13546 4.06737 4
    endloop
  endfacet
  facet normal 0 0 1
    outer loop
      vertex -7.36044 8.17459 4
      vertex -8.09017 5.87785 4
      vertex -5.5 9.52628 4
    endloop
  endfacet
  facet normal 0 0 1
    outer loop
      vertex -8.09017 5.87785 4
      vertex -6.69131 7.43145 4
      vertex -5.5 9.52628 4
    endloop
  endfacet
  facet normal 0 0 1
    outer loop
      vertex -5.5 9.52628 4
      vertex -5 8.66025 4
      vertex -3.39919 10.4616 4
    endloop
  endfacet
  facet normal 0 0 1
    outer loop
      vertex -10 0 4
      vertex -9.78148 2.07912 4
      vertex -10.7596 -2.28703 4
    endloop
  endfacet
  facet normal 0 0 1
    outer loop
      vertex -3.39919 10.4616 4
      vertex -3.09017 9.51056 4
      vertex -1.14981 10.9397 4
    endloop
  endfacet
  facet normal 0 0 1
    outer loop
      vertex -1.14981 10.9397 4
      vertex -1.04529 9.94522 4
      vertex 1.14981 10.9397 4
    endloop
  endfacet
  facet normal 0 0 1
    outer loop
      vertex 1.14981 10.9397 4
      vertex 1.04529 9.94522 4
      vertex 3.39919 10.4616 4
    endloop
  endfacet
  facet normal 0 0 1
    outer loop
      vertex 3.39919 10.4616 4
      vertex 3.09017 9.51056 4
      vertex 5.5 9.52628 4
    endloop
  endfacet
  facet normal 0 0 1
    outer loop
      vertex 5.5 9.52628 4
      vertex 5 8.66025 4
      vertex 7.36044 8.17459 4
    endloop
  endfacet
  facet normal 0 0 1
    outer loop
      vertex -9.13546 -4.06737 4
      vertex -9.78148 -2.07912 4
      vertex -10.7596 -2.28703 4
    endloop
  endfacet
  facet normal 0 0 1
    outer loop
      vertex 7.36044 8.17459 4
      vertex 6.69131 7.43145 4
      vertex 8.89919 6.46564 4
    endloop
  endfacet
  facet normal 0 0 1
    outer loop
      vertex 8.89919 6.46564 4
      vertex 8.09017 5.87785 4
      vertex 10.049 4.4741 4
    endloop
  endfacet
  facet normal 0 0 1
    outer loop
      vertex 10.049 4.4741 4
      vertex 9.13546 4.06737 4
      vertex 10.7596 2.28703 4
    endloop
  endfacet
  facet normal 0 0 1
    outer loop
      vertex 10.7596 2.28703 4
      vertex 9.78148 2.07912 4
      vertex 11 0 4
    endloop
  endfacet
  facet normal 0 0 1
    outer loop
      vertex 9.78148 2.07912 4
      vertex 10 0 4
      vertex 11 0 4
    endloop
  endfacet
  facet normal 0 0 1
    outer loop
      vertex 11 0 4
      vertex 9.78148 -2.07912 4
      vertex 10.7596 -2.28703 4
    endloop
  endfacet
  facet normal 0 0 1
    outer loop
      vertex 10.7596 -2.28703 4
      vertex 9.13546 -4.06737 4
      vertex 10.049 -4.4741 4
    endloop
  endfacet
  facet normal 0 0 1
    outer loop
      vertex 10.049 -4.4741 4
      vertex 8.09017 -5.87785 4
      vertex 8.89919 -6.46564 4
    endloop
  endfacet
  facet normal 0 0 1
    outer loop
      vertex 8.89919 -6.46564 4
      vertex 6.69131 -7.43145 4
      vertex 7.36044 -8.17459 4
    endloop
  endfacet
  facet normal 0 0 1
    outer loop
      vertex 7.36044 -8.17459 4
      vertex 5 -8.66025 4
      vertex 5.5 -9.52628 4
    endloop
  endfacet
  facet normal 0 0 1
    outer loop
      vertex 5.5 -9.52628 4
      vertex 3.09017 -9.51056 4
      vertex 3.39919 -10.4616 4
    endloop
  endfacet
  facet normal 0 0 1
    outer loop
      vertex 3.39919 -10.4616 4
      vertex 1.04529 -9.94522 4
      vertex 1.14981 -10.9397 4
    endloop
  endfacet
  facet normal 0 0 1
    outer loop
      vertex 1.14981 -10.9397 4
      vertex -1.04529 -9.94522 4
      vertex -1.14981 -10.9397 4
    endloop
  endfacet
  facet normal 0 0 1
    outer loop
      vertex -1.14981 -10.9397 4
      vertex -3.09017 -9.51056 4
      vertex -3.39919 -10.4616 4
    endloop
  endfacet
  facet normal 0 0 1
    outer loop
      vertex -3.09017 -9.51056 4
      vertex -5 -8.66025 4
      vertex -3.39919 -10.4616 4
    endloop
  endfacet
  facet normal 0 0 1
    outer loop
      vertex -3.39919 -10.4616 4
      vertex -6.69131 -7.43145 4
      vertex -5.5 -9.52628 4
    endloop
  endfacet
  facet normal 0 0 1
    outer loop
      vertex -6.69131 -7.43145 4
      vertex -8.09017 -5.87785 4
      vertex -5.5 -9.52628 4
    endloop
  endfacet
  facet normal 0 0 1
    outer loop
      vertex -8.09017 -5.87785 4
      vertex -9.13546 -4.06737 4
      vertex -10.7596 -2.28703 4
    endloop
  endfacet
  facet normal 0 0 1
    outer loop
      vertex -3.09017 9.51056 4
      vertex -1.04529 9.94522 4
      vertex -1.14981 10.9397 4
    endloop
  endfacet
  facet normal 0 0 1
    outer loop
      vertex -1.04529 9.94522 4
      vertex 1.04529 9.94522 4
      vertex 1.14981 10.9397 4
    endloop
  endfacet
  facet normal 0 0 1
    outer loop
      vertex 1.04529 9.94522 4
      vertex 3.09017 9.51056 4
      vertex 3.39919 10.4616 4
    endloop
  endfacet
  facet normal 0 0 1
    outer loop
      vertex 3.09017 9.51056 4
      vertex 5 8.66025 4
      vertex 5.5 9.52628 4
    endloop
  endfacet
  facet normal 0 0 1
    outer loop
      vertex 5 8.66025 4
      vertex 6.69131 7.43145 4
      vertex 7.36044 8.17459 4
    endloop
  endfacet
  facet normal 0 0 1
    outer loop
      vertex 6.69131 7.43145 4
      vertex 8.09017 5.87785 4
      vertex 8.89919 6.46564 4
    endloop
  endfacet
  facet normal 0 0 1
    outer loop
      vertex 8.09017 5.87785 4
      vertex 9.13546 4.06737 4
      vertex 10.049 4.4741 4
    endloop
  endfacet
  facet normal 0 0 1
    outer loop
      vertex -9.78148 -2.07912 4
      vertex -10 0 4
      vertex -10.7596 -2.28703 4
    endloop
  endfacet
endsolid OpenSCAD_Model
