solid OpenSCAD_Model
  facet normal -1 0 0
    outer loop
      vertex -15 -15 0
      vertex -15 -15 10
      vertex -15 15 0
    endloop
  endfacet
  facet normal -1 0 0
    outer loop
      vertex -15 15 0
      vertex -15 -15 10
      vertex -15 15 10
    endloop
  endfacet
  facet normal 0 -1 0
    outer loop
      vertex -15 -15 10
      vertex -15 -15 0
      vertex 15 -15 0
    endloop
  endfacet
  facet normal 0 -1 0
    outer loop
      vertex 15 -15 10
      vertex -15 -15 10
      vertex 15 -15 0
    endloop
  endfacet
  facet normal 0 0 -1
    outer loop
      vertex 3.09017 9.51056 0
      vertex -15 15 0
      vertex 15 15 0
    endloop
  endfacet
  facet normal 0 0 -1
    outer loop
      vertex -15 -15 0
      vertex -15 15 0
      vertex -10 0 0
    endloop
  endfacet
  facet normal 0 0 -1
    outer loop
      vertex -15 -15 0
      vertex -10 0 0
      vertex -9.78148 -2.07912 0
    endloop
  endfacet
  facet normal 0 0 -1
    outer loop
      vertex -15 -15 0
      vertex -9.78148 -2.07912 0
      vertex -9.13546 -4.06737 0
    endloop
  endfacet
  facet normal 0 0 -1
    outer loop
      vertex -15 -15 0
      vertex -9.13546 -4.06737 0
      vertex -8.09017 -5.87785 0
    endloop
  endfacet
  facet normal 0 0 -1
    outer loop
      vertex -15 -15 0
      vertex -8.09017 -5.87785 0
      vertex -6.69131 -7.43145 0
    endloop
  endfacet
  facet normal 0 0 -1
    outer loop
      vertex -15 -15 0
      vertex -6.69131 -7.43145 0
      vertex -5 -8.66025 0
    endloop
  endfacet
  facet normal 0 0 -1
    outer loop
      vertex -15 -15 0
      vertex -5 -8.66025 0
      vertex -3.09017 -9.51056 0
    endloop
  endfacet
  facet normal 0 0 -1
    outer loop
      vertex -15 -15 0
      vertex -3.09017 -9.51056 0
      vertex 15 -15 0
    endloop
  endfacet
  facet normal 0 0 -1
    outer loop
      vertex -3.09017 -9.51056 0
      vertex -1.04529 -9.94522 0
      vertex 15 -15 0
    endloop
  endfacet
  facet normal 0 0 -1
    outer loop
      vertex 3.09017 -9.51056 0
      vertex 15 -15 0
      vertex 1.04529 -9.94522 0
    endloop
  endfacet
  facet normal 0 0 -1
    outer loop
      vertex 5 -8.66025 0
      vertex 15 -15 0
      vertex 3.09017 -9.51056 0
    endloop
  endfacet
  facet normal 0 0 -1
    outer loop
      vertex 8.09017 -5.87785 0
      vertex 15 -15 0
      vertex 6.69131 -7.43145 0
    endloop
  endfacet
  facet normal 0 0 -1
    outer loop
      vertex 5 -8.66025 0
      vertex 6.69131 -7.43145 0
      vertex 15 -15 0
    endloop
  endfacet
  facet normal 0 0 -1
    outer loop
      vertex -8.09017 5.87785 0
      vertex -15 15 0
      vertex -6.69131 7.43145 0
    endloop
  endfacet
  facet normal 0 0 -1
    outer loop
      vertex 15 -15 0
      vertex 8.09017 -5.87785 0
      vertex 9.13546 -4.06737 0
    endloop
  endfacet
  facet normal 0 0 -1
    outer loop
      vertex 15 -15 0
      vertex 9.13546 -4.06737 0
      vertex 9.78148 -2.07912 0
    endloop
  endfacet
  facet normal 0 0 -1
    outer loop
      vertex 15 -15 0
      vertex 9.78148 -2.07912 0
      vertex 15 15 0
    endloop
  endfacet
  facet normal 0 0 -1
    outer loop
      vertex -6.69131 7.43145 0
      vertex -15 15 0
      vertex -5 8.66025 0
    endloop
  endfacet
  facet normal 0 0 -1
    outer loop
      vertex -1.04529 9.94522 0
      vertex -15 15 0
      vertex 1.04529 9.94522 0
    endloop
  endfacet
  facet normal 0 0 -1
    outer loop
      vertex 10 0 0
      vertex 9.78148 2.07912 0
      vertex 15 15 0
    endloop
  endfacet
  facet normal 0 0 -1
    outer loop
      vertex -5 8.66025 0
      vertex -15 15 0
      vertex -3.09017 9.51056 0
    endloop
  endfacet
  facet normal 0 0 -1
    outer loop
      vertex 9.78148 2.07912 0
      vertex 9.13546 4.06737 0
      vertex 15 15 0
    endloop
  endfacet
  facet normal 0 0 -1
    outer loop
      vertex 9.13546 4.06737 0
      vertex 8.09017 5.87785 0
      vertex 15 15 0
    endloop
  endfacet
  facet normal 0 0 -1
    outer loop
      vertex -3.09017 9.51056 0
      vertex -15 15 0
      vertex -1.04529 9.94522 0
    endloop
  endfacet
  facet normal 0 0 -1
    outer loop
      vertex 8.09017 5.87785 0
      vertex 6.69131 7.43145 0
      vertex 15 15 0
    endloop
  endfacet
  facet normal 0 0 -1
    outer loop
      vertex 6.69131 7.43145 0
      vertex 5 8.66025 0
      vertex 15 15 0
    endloop
  endfacet
  facet normal 0 0 -1
    outer loop
      vertex 1.04529 9.94522 0
      vertex -15 15 0
      vertex 3.09017 9.51056 0
    endloop
  endfacet
  facet normal 0 0 -1
    outer loop
      vertex 5 8.66025 0
      vertex 3.09017 9.51056 0
      vertex 15 15 0
    endloop
  endfacet
  facet normal 0 0 -1
    outer loop
      vertex 10 0 0
      vertex 15 15 0
      vertex 9.78148 -2.07912 0
    endloop
  endfacet
  facet normal 0 0 -1
    outer loop
      vertex -9.13546 4.06737 0
      vertex -15 15 0
      vertex -8.09017 5.87785 0
    endloop
  endfacet
  facet normal 0 0 -1
    outer loop
      vertex -9.78148 2.07912 0
      vertex -15 15 0
      vertex -9.13546 4.06737 0
    endloop
  endfacet
  facet normal 0 0 -1
    outer loop
      vertex -10 0 0
      vertex -15 15 0
      vertex -9.78148 2.07912 0
    endloop
  endfacet
  facet normal 0 0 -1
    outer loop
      vertex 1.04529 -9.94522 0
      vertex 15 -15 0
      vertex -1.04529 -9.94522 0
    endloop
  endfacet
  facet normal 0 1 0
    outer loop
      vertex -15 15 0
      vertex -15 15 10
      vertex 15 15 0
    endloop
  endfacet
  facet normal 0 1 0
    outer loop
      vertex 15 15 0
      vertex -15 15 10
      vertex 15 15 10
    endloop
  endfacet
  facet normal 0 0 1
    outer loop
      vertex 3.47644 -10.6994 10
      vertex -15 -15 10
      vertex 15 -15 10
    endloop
  endfacet
  facet normal 0 0 1
    outer loop
      vertex -15 15 10
      vertex -15 -15 10
      vertex -11.0042 -2.33901 10
    endloop
  endfacet
  facet normal 0 0 1
    outer loop
      vertex 5.625 -9.74279 10
      vertex 3.47644 -10.6994 10
      vertex 15 -15 10
    endloop
  endfacet
  facet normal 0 0 1
    outer loop
      vertex -15 15 10
      vertex -11.0042 -2.33901 10
      vertex -11.25 0 10
    endloop
  endfacet
  facet normal 0 0 1
    outer loop
      vertex -15 15 10
      vertex -11.25 0 10
      vertex -11.0042 2.33901 10
    endloop
  endfacet
  facet normal 0 0 1
    outer loop
      vertex -15 15 10
      vertex -11.0042 2.33901 10
      vertex -10.2774 4.57579 10
    endloop
  endfacet
  facet normal 0 0 1
    outer loop
      vertex -1.17595 11.1884 10
      vertex 1.17595 11.1884 10
      vertex 15 15 10
    endloop
  endfacet
  facet normal 0 0 1
    outer loop
      vertex -15 15 10
      vertex -10.2774 4.57579 10
      vertex -9.10144 6.61258 10
    endloop
  endfacet
  facet normal 0 0 1
    outer loop
      vertex -5.625 9.74279 10
      vertex -15 15 10
      vertex -7.52772 8.36038 10
    endloop
  endfacet
  facet normal 0 0 1
    outer loop
      vertex -3.47644 10.6994 10
      vertex -15 15 10
      vertex -5.625 9.74279 10
    endloop
  endfacet
  facet normal 0 0 1
    outer loop
      vertex 15 15 10
      vertex -15 15 10
      vertex -3.47644 10.6994 10
    endloop
  endfacet
  facet normal 0 0 1
    outer loop
      vertex 1.17595 11.1884 10
      vertex 3.47644 10.6994 10
      vertex 15 15 10
    endloop
  endfacet
  facet normal 0 0 1
    outer loop
      vertex 15 15 10
      vertex -3.47644 10.6994 10
      vertex -1.17595 11.1884 10
    endloop
  endfacet
  facet normal 0 0 1
    outer loop
      vertex 11.0042 2.33901 10
      vertex 11.25 0 10
      vertex 15 -15 10
    endloop
  endfacet
  facet normal 0 0 1
    outer loop
      vertex 9.10144 -6.61258 10
      vertex 7.52772 -8.36038 10
      vertex 15 -15 10
    endloop
  endfacet
  facet normal 0 0 1
    outer loop
      vertex 15 15 10
      vertex 3.47644 10.6994 10
      vertex 5.625 9.74279 10
    endloop
  endfacet
  facet normal 0 0 1
    outer loop
      vertex 7.52772 -8.36038 10
      vertex 5.625 -9.74279 10
      vertex 15 -15 10
    endloop
  endfacet
  facet normal 0 0 1
    outer loop
      vertex 15 15 10
      vertex 5.625 9.74279 10
      vertex 7.52772 8.36038 10
    endloop
  endfacet
  facet normal 0 0 1
    outer loop
      vertex 15 15 10
      vertex 7.52772 8.36038 10
      vertex 9.10144 6.61258 10
    endloop
  endfacet
  facet normal 0 0 1
    outer loop
      vertex 11.25 0 10
      vertex 11.0042 -2.33901 10
      vertex 15 -15 10
    endloop
  endfacet
  facet normal 0 0 1
    outer loop
      vertex 15 15 10
      vertex 9.10144 6.61258 10
      vertex 10.2774 4.57579 10
    endloop
  endfacet
  facet normal 0 0 1
    outer loop
      vertex 15 15 10
      vertex 11.0042 2.33901 10
      vertex 15 -15 10
    endloop
  endfacet
  facet normal 0 0 1
    outer loop
      vertex 15 15 10
      vertex 10.2774 4.57579 10
      vertex 11.0042 2.33901 10
    endloop
  endfacet
  facet normal 0 0 1
    outer loop
      vertex 10.2774 -4.57579 10
      vertex 9.10144 -6.61258 10
      vertex 15 -15 10
    endloop
  endfacet
  facet normal 0 0 1
    outer loop
      vertex 1.17595 -11.1884 10
      vertex -15 -15 10
      vertex 3.47644 -10.6994 10
    endloop
  endfacet
  facet normal 0 0 1
    outer loop
      vertex -1.17595 -11.1884 10
      vertex -15 -15 10
      vertex 1.17595 -11.1884 10
    endloop
  endfacet
  facet normal 0 0 1
    outer loop
      vertex -3.47644 -10.6994 10
      vertex -15 -15 10
      vertex -1.17595 -11.1884 10
    endloop
  endfacet
  facet normal 0 0 1
    outer loop
      vertex -5.625 -9.74279 10
      vertex -15 -15 10
      vertex -3.47644 -10.6994 10
    endloop
  endfacet
  facet normal 0 0 1
    outer loop
      vertex -7.52772 -8.36038 10
      vertex -15 -15 10
      vertex -5.625 -9.74279 10
    endloop
  endfacet
  facet normal 0 0 1
    outer loop
      vertex -9.10144 -6.61258 10
      vertex -15 -15 10
      vertex -7.52772 -8.36038 10
    endloop
  endfacet
  facet normal 0 0 1
    outer loop
      vertex -10.2774 -4.57579 10
      vertex -15 -15 10
      vertex -9.10144 -6.61258 10
    endloop
  endfacet
  facet normal 0 0 1
    outer loop
      vertex -11.0042 -2.33901 10
      vertex -15 -15 10
      vertex -10.2774 -4.57579 10
    endloop
  endfacet
  facet normal 0 0 1
    outer loop
      vertex -9.10144 6.61258 10
      vertex -7.52772 8.36038 10
      vertex -15 15 10
    endloop
  endfacet
  facet normal 0 0 1
    outer loop
      vertex 11.0042 -2.33901 10
      vertex 10.2774 -4.57579 10
      vertex 15 -15 10
    endloop
  endfacet
  facet normal 1 0 0
    outer loop
      vertex 15 -15 10
      vertex 15 -15 0
      vertex 15 15 0
    endloop
  endfacet
  facet normal 1 0 0
    outer loop
      vertex 15 15 10
      vertex 15 -15 10
      vertex 15 15 0
    endloop
  endfacet
  facet normal 0.994522 -0.104528 0
    outer loop
      vertex -9.78148 2.07912 0
      vertex -9.78148 2.07912 3
      vertex -10 0 3
    endloop
  endfacet
  facet normal 0.994522 -0.104528 0
    outer loop
      vertex -10 0 0
      vertex -9.78148 2.07912 0
      vertex -10 0 3
    endloop
  endfacet
  facet normal 0.994522 0.104528 0
    outer loop
      vertex -10 0 3
      vertex -9.78148 -2.07912 3
      vertex -9.78148 -2.07912 0
    endloop
  endfacet
  facet normal 0.994522 0.104528 0
    outer loop
      vertex -10 0 0
      vertex -10 0 3
      vertex -9.78148 -2.07912 0
    endloop
  endfacet
  facet normal 0.951057 -0.309017 0
    outer loop
      vertex -9.13546 4.06737 0
      vertex -9.13546 4.06737 3
      vertex -9.78148 2.07912 3
    endloop
  endfacet
  facet normal 0.951057 -0.309017 0
    outer loop
      vertex -9.78148 2.07912 0
      vertex -9.13546 4.06737 0
      vertex -9.78148 2.07912 3
    endloop
  endfacet
  facet normal 0.866025 -0.5 0
    outer loop
      vertex -8.09017 5.87785 0
      vertex -8.09017 5.87785 3
      vertex -9.13546 4.06737 3
    endloop
  endfacet
  facet normal 0.866025 -0.5 0
    outer loop
      vertex -9.13546 4.06737 0
      vertex -8.09017 5.87785 0
      vertex -9.13546 4.06737 3
    endloop
  endfacet
  facet normal 0.743145 -0.669131 0
    outer loop
      vertex -6.69131 7.43145 0
      vertex -6.69131 7.43145 3
      vertex -8.09017 5.87785 3
    endloop
  endfacet
  facet normal 0.743145 -0.669131 0
    outer loop
      vertex -8.09017 5.87785 0
      vertex -6.69131 7.43145 0
      vertex -8.09017 5.87785 3
    endloop
  endfacet
  facet normal 0.587785 -0.809017 0
    outer loop
      vertex -5 8.66025 0
      vertex -5 8.66025 3
      vertex -6.69131 7.43145 3
    endloop
  endfacet
  facet normal 0.587785 -0.809017 0
    outer loop
      vertex -6.69131 7.43145 0
      vertex -5 8.66025 0
      vertex -6.69131 7.43145 3
    endloop
  endfacet
  facet normal 0.406737 -0.913545 0
    outer loop
      vertex -3.09017 9.51056 0
      vertex -3.09017 9.51056 3
      vertex -5 8.66025 3
    endloop
  endfacet
  facet normal 0.406737 -0.913545 0
    outer loop
      vertex -5 8.66025 0
      vertex -3.09017 9.51056 0
      vertex -5 8.66025 3
    endloop
  endfacet
  facet normal 0.207912 -0.978148 0
    outer loop
      vertex -1.04529 9.94522 0
      vertex -1.04529 9.94522 3
      vertex -3.09017 9.51056 3
    endloop
  endfacet
  facet normal 0.207912 -0.978148 0
    outer loop
      vertex -3.09017 9.51056 0
      vertex -1.04529 9.94522 0
      vertex -3.09017 9.51056 3
    endloop
  endfacet
  facet normal 0 -1 0
    outer loop
      vertex 1.04529 9.94522 0
      vertex 1.04529 9.94522 3
      vertex -1.04529 9.94522 3
    endloop
  endfacet
  facet normal 0 -1 0
    outer loop
      vertex -1.04529 9.94522 0
      vertex 1.04529 9.94522 0
      vertex -1.04529 9.94522 3
    endloop
  endfacet
  facet normal -0.207912 -0.978148 0
    outer loop
      vertex 3.09017 9.51056 0
      vertex 3.09017 9.51056 3
      vertex 1.04529 9.94522 3
    endloop
  endfacet
  facet normal -0.207912 -0.978148 0
    outer loop
      vertex 1.04529 9.94522 0
      vertex 3.09017 9.51056 0
      vertex 1.04529 9.94522 3
    endloop
  endfacet
  facet normal -0.406737 -0.913545 0
    outer loop
      vertex 5 8.66025 0
      vertex 5 8.66025 3
      vertex 3.09017 9.51056 3
    endloop
  endfacet
  facet normal -0.406737 -0.913545 0
    outer loop
      vertex 3.09017 9.51056 0
      vertex 5 8.66025 0
      vertex 3.09017 9.51056 3
    endloop
  endfacet
  facet normal -0.587785 -0.809017 0
    outer loop
      vertex 6.69131 7.43145 0
      vertex 6.69131 7.43145 3
      vertex 5 8.66025 3
    endloop
  endfacet
  facet normal -0.587785 -0.809017 0
    outer loop
      vertex 5 8.66025 0
      vertex 6.69131 7.43145 0
      vertex 5 8.66025 3
    endloop
  endfacet
  facet normal -0.743145 -0.669131 0
    outer loop
      vertex 8.09017 5.87785 3
      vertex 6.69131 7.43145 3
      vertex 8.09017 5.87785 0
    endloop
  endfacet
  facet normal -0.743145 -0.669131 0
    outer loop
      vertex 8.09017 5.87785 0
      vertex 6.69131 7.43145 3
      vertex 6.69131 7.43145 0
    endloop
  endfacet
  facet normal -0.866025 -0.5 0
    outer loop
      vertex 9.13546 4.06737 3
      vertex 8.09017 5.87785 3
      vertex 9.13546 4.06737 0
    endloop
  endfacet
  facet normal -0.866025 -0.5 0
    outer loop
      vertex 9.13546 4.06737 0
      vertex 8.09017 5.87785 3
      vertex 8.09017 5.87785 0
    endloop
  endfacet
  facet normal -0.951057 -0.309017 0
    outer loop
      vertex 9.78148 2.07912 3
      vertex 9.13546 4.06737 3
      vertex 9.78148 2.07912 0
    endloop
  endfacet
  facet normal -0.951057 -0.309017 0
    outer loop
      vertex 9.78148 2.07912 0
      vertex 9.13546 4.06737 3
      vertex 9.13546 4.06737 0
    endloop
  endfacet
  facet normal -0.994522 -0.104528 0
    outer loop
      vertex 10 0 3
      vertex 9.78148 2.07912 3
      vertex 10 0 0
    endloop
  endfacet
  facet normal -0.994522 -0.104528 0
    outer loop
      vertex 10 0 0
      vertex 9.78148 2.07912 3
      vertex 9.78148 2.07912 0
    endloop
  endfacet
  facet normal -0.994522 0.104528 0
    outer loop
      vertex 10 0 3
      vertex 10 0 0
      vertex 9.78148 -2.07912 3
    endloop
  endfacet
  facet normal -0.994522 0.104528 0
    outer loop
      vertex 9.78148 -2.07912 3
      vertex 10 0 0
      vertex 9.78148 -2.07912 0
    endloop
  endfacet
  facet normal -0.951057 0.309017 0
    outer loop
      vertex 9.78148 -2.07912 3
      vertex 9.78148 -2.07912 0
      vertex 9.13546 -4.06737 3
    endloop
  endfacet
  facet normal -0.951057 0.309017 0
    outer loop
      vertex 9.13546 -4.06737 3
      vertex 9.78148 -2.07912 0
      vertex 9.13546 -4.06737 0
    endloop
  endfacet
  facet normal -0.866025 0.5 0
    outer loop
      vertex 9.13546 -4.06737 3
      vertex 9.13546 -4.06737 0
      vertex 8.09017 -5.87785 3
    endloop
  endfacet
  facet normal -0.866025 0.5 0
    outer loop
      vertex 8.09017 -5.87785 3
      vertex 9.13546 -4.06737 0
      vertex 8.09017 -5.87785 0
    endloop
  endfacet
  facet normal -0.743145 0.669131 0
    outer loop
      vertex 8.09017 -5.87785 3
      vertex 8.09017 -5.87785 0
      vertex 6.69131 -7.43145 3
    endloop
  endfacet
  facet normal -0.743145 0.669131 0
    outer loop
      vertex 6.69131 -7.43145 3
      vertex 8.09017 -5.87785 0
      vertex 6.69131 -7.43145 0
    endloop
  endfacet
  facet normal -0.587785 0.809017 0
    outer loop
      vertex 6.69131 -7.43145 3
      vertex 6.69131 -7.43145 0
      vertex 5 -8.66025 3
    endloop
  endfacet
  facet normal -0.587785 0.809017 0
    outer loop
      vertex 5 -8.66025 3
      vertex 6.69131 -7.43145 0
      vertex 5 -8.66025 0
    endloop
  endfacet
  facet normal -0.406737 0.913545 0
    outer loop
      vertex 5 -8.66025 3
      vertex 5 -8.66025 0
      vertex 3.09017 -9.51056 3
    endloop
  endfacet
  facet normal -0.406737 0.913545 0
    outer loop
      vertex 3.09017 -9.51056 3
      vertex 5 -8.66025 0
      vertex 3.09017 -9.51056 0
    endloop
  endfacet
  facet normal -0.207912 0.978148 0
    outer loop
      vertex 3.09017 -9.51056 3
      vertex 3.09017 -9.51056 0
      vertex 1.04529 -9.94522 3
    endloop
  endfacet
  facet normal -0.207912 0.978148 0
    outer loop
      vertex 1.04529 -9.94522 3
      vertex 3.09017 -9.51056 0
      vertex 1.04529 -9.94522 0
    endloop
  endfacet
  facet normal 0 1 0
    outer loop
      vertex 1.04529 -9.94522 3
      vertex 1.04529 -9.94522 0
      vertex -1.04529 -9.94522 3
    endloop
  endfacet
  facet normal 0 1 0
    outer loop
      vertex -1.04529 -9.94522 3
      vertex 1.04529 -9.94522 0
      vertex -1.04529 -9.94522 0
    endloop
  endfacet
  facet normal 0.207912 0.978148 0
    outer loop
      vertex -1.04529 -9.94522 3
      vertex -1.04529 -9.94522 0
      vertex -3.09017 -9.51056 3
    endloop
  endfacet
  facet normal 0.207912 0.978148 0
    outer loop
      vertex -3.09017 -9.51056 3
      vertex -1.04529 -9.94522 0
      vertex -3.09017 -9.51056 0
    endloop
  endfacet
  facet normal 0.406737 0.913545 0
    outer loop
      vertex -3.09017 -9.51056 3
      vertex -3.09017 -9.51056 0
      vertex -5 -8.66025 3
    endloop
  endfacet
  facet normal 0.406737 0.913545 0
    outer loop
      vertex -5 -8.66025 3
      vertex -3.09017 -9.51056 0
      vertex -5 -8.66025 0
    endloop
  endfacet
  facet normal 0.587785 0.809017 0
    outer loop
      vertex -5 -8.66025 3
      vertex -5 -8.66025 0
      vertex -6.69131 -7.43145 3
    endloop
  endfacet
  facet normal 0.587785 0.809017 0
    outer loop
      vertex -6.69131 -7.43145 3
      vertex -5 -8.66025 0
      vertex -6.69131 -7.43145 0
    endloop
  endfacet
  facet normal 0.743145 0.669131 0
    outer loop
      vertex -8.09017 -5.87785 3
      vertex -6.69131 -7.43145 3
      vertex -6.69131 -7.43145 0
    endloop
  endfacet
  facet normal 0.743145 0.669131 0
    outer loop
      vertex -8.09017 -5.87785 0
      vertex -8.09017 -5.87785 3
      vertex -6.69131 -7.43145 0
    endloop
  endfacet
  facet normal 0.866025 0.5 0
    outer loop
      vertex -9.13546 -4.06737 3
      vertex -8.09017 -5.87785 3
      vertex -8.09017 -5.87785 0
    endloop
  endfacet
  facet normal 0.866025 0.5 0
    outer loop
      vertex -9.13546 -4.06737 0
      vertex -9.13546 -4.06737 3
      vertex -8.09017 -5.87785 0
    endloop
  endfacet
  facet normal 0.951057 0.309017 0
    outer loop
      vertex -9.78148 -2.07912 3
      vertex -9.13546 -4.06737 3
      vertex -9.13546 -4.06737 0
    endloop
  endfacet
  facet normal 0.951057 0.309017 0
    outer loop
      vertex -9.78148 -2.07912 0
      vertex -9.78148 -2.07912 3
      vertex -9.13546 -4.06737 0
    endloop
  endfacet
  facet normal 0.994522 0.104528 0
    outer loop
      vertex -11.25 0 10
      vertex -11.0042 -2.33901 10
      vertex -11.0042 -2.33901 3
    endloop
  endfacet
  facet normal 0.994522 0.104528 0
    outer loop
      vertex -11.25 0 3
      vertex -11.25 0 10
      vertex -11.0042 -2.33901 3
    endloop
  endfacet
  facet normal 0.951056 0.309017 0
    outer loop
      vertex -11.0042 -2.33901 10
      vertex -10.2774 -4.57579 10
      vertex -10.2774 -4.57579 3
    endloop
  endfacet
  facet normal 0.951056 0.309017 0
    outer loop
      vertex -11.0042 -2.33901 3
      vertex -11.0042 -2.33901 10
      vertex -10.2774 -4.57579 3
    endloop
  endfacet
  facet normal 0.866025 0.5 0
    outer loop
      vertex -10.2774 -4.57579 10
      vertex -9.10144 -6.61258 10
      vertex -9.10144 -6.61258 3
    endloop
  endfacet
  facet normal 0.866025 0.5 0
    outer loop
      vertex -10.2774 -4.57579 3
      vertex -10.2774 -4.57579 10
      vertex -9.10144 -6.61258 3
    endloop
  endfacet
  facet normal 0.743145 0.669131 0
    outer loop
      vertex -9.10144 -6.61258 10
      vertex -7.52772 -8.36038 10
      vertex -7.52772 -8.36038 3
    endloop
  endfacet
  facet normal 0.743145 0.669131 0
    outer loop
      vertex -9.10144 -6.61258 3
      vertex -9.10144 -6.61258 10
      vertex -7.52772 -8.36038 3
    endloop
  endfacet
  facet normal 0.587785 0.809017 0
    outer loop
      vertex -5.625 -9.74279 10
      vertex -5.625 -9.74279 3
      vertex -7.52772 -8.36038 10
    endloop
  endfacet
  facet normal 0.587785 0.809017 0
    outer loop
      vertex -7.52772 -8.36038 10
      vertex -5.625 -9.74279 3
      vertex -7.52772 -8.36038 3
    endloop
  endfacet
  facet normal 0.406737 0.913545 0
    outer loop
      vertex -3.47644 -10.6994 10
      vertex -3.47644 -10.6994 3
      vertex -5.625 -9.74279 10
    endloop
  endfacet
  facet normal 0.406737 0.913545 0
    outer loop
      vertex -5.625 -9.74279 10
      vertex -3.47644 -10.6994 3
      vertex -5.625 -9.74279 3
    endloop
  endfacet
  facet normal 0.207911 0.978148 0
    outer loop
      vertex -1.17595 -11.1884 10
      vertex -1.17595 -11.1884 3
      vertex -3.47644 -10.6994 10
    endloop
  endfacet
  facet normal 0.207911 0.978148 0
    outer loop
      vertex -3.47644 -10.6994 10
      vertex -1.17595 -11.1884 3
      vertex -3.47644 -10.6994 3
    endloop
  endfacet
  facet normal 0 1 0
    outer loop
      vertex 1.17595 -11.1884 10
      vertex 1.17595 -11.1884 3
      vertex -1.17595 -11.1884 10
    endloop
  endfacet
  facet normal 0 1 0
    outer loop
      vertex -1.17595 -11.1884 10
      vertex 1.17595 -11.1884 3
      vertex -1.17595 -11.1884 3
    endloop
  endfacet
  facet normal -0.207911 0.978148 0
    outer loop
      vertex 3.47644 -10.6994 10
      vertex 3.47644 -10.6994 3
      vertex 1.17595 -11.1884 10
    endloop
  endfacet
  facet normal -0.207911 0.978148 0
    outer loop
      vertex 1.17595 -11.1884 10
      vertex 3.47644 -10.6994 3
      vertex 1.17595 -11.1884 3
    endloop
  endfacet
  facet normal -0.406737 0.913545 0
    outer loop
      vertex 5.625 -9.74279 10
      vertex 5.625 -9.74279 3
      vertex 3.47644 -10.6994 10
    endloop
  endfacet
  facet normal -0.406737 0.913545 0
    outer loop
      vertex 3.47644 -10.6994 10
      vertex 5.625 -9.74279 3
      vertex 3.47644 -10.6994 3
    endloop
  endfacet
  facet normal -0.587785 0.809017 0
    outer loop
      vertex 7.52772 -8.36038 10
      vertex 7.52772 -8.36038 3
      vertex 5.625 -9.74279 10
    endloop
  endfacet
  facet normal -0.587785 0.809017 0
    outer loop
      vertex 5.625 -9.74279 10
      vertex 7.52772 -8.36038 3
      vertex 5.625 -9.74279 3
    endloop
  endfacet
  facet normal -0.743145 0.669131 0
    outer loop
      vertex 9.10144 -6.61258 10
      vertex 9.10144 -6.61258 3
      vertex 7.52772 -8.36038 10
    endloop
  endfacet
  facet normal -0.743145 0.669131 0
    outer loop
      vertex 7.52772 -8.36038 10
      vertex 9.10144 -6.61258 3
      vertex 7.52772 -8.36038 3
    endloop
  endfacet
  facet normal -0.866025 0.5 0
    outer loop
      vertex 10.2774 -4.57579 10
      vertex 10.2774 -4.57579 3
      vertex 9.10144 -6.61258 10
    endloop
  endfacet
  facet normal -0.866025 0.5 0
    outer loop
      vertex 9.10144 -6.61258 10
      vertex 10.2774 -4.57579 3
      vertex 9.10144 -6.61258 3
    endloop
  endfacet
  facet normal -0.951056 0.309017 0
    outer loop
      vertex 11.0042 -2.33901 10
      vertex 11.0042 -2.33901 3
      vertex 10.2774 -4.57579 10
    endloop
  endfacet
  facet normal -0.951056 0.309017 0
    outer loop
      vertex 10.2774 -4.57579 10
      vertex 11.0042 -2.33901 3
      vertex 10.2774 -4.57579 3
    endloop
  endfacet
  facet normal -0.994522 0.104528 0
    outer loop
      vertex 11.25 0 10
      vertex 11.25 0 3
      vertex 11.0042 -2.33901 10
    endloop
  endfacet
  facet normal -0.994522 0.104528 0
    outer loop
      vertex 11.0042 -2.33901 10
      vertex 11.25 0 3
      vertex 11.0042 -2.33901 3
    endloop
  endfacet
  facet normal -0.994522 -0.104528 0
    outer loop
      vertex 11.25 0 10
      vertex 11.0042 2.33901 10
      vertex 11.25 0 3
    endloop
  endfacet
  facet normal -0.994522 -0.104528 0
    outer loop
      vertex 11.25 0 3
      vertex 11.0042 2.33901 10
      vertex 11.0042 2.33901 3
    endloop
  endfacet
  facet normal -0.951056 -0.309017 0
    outer loop
      vertex 11.0042 2.33901 10
      vertex 10.2774 4.57579 10
      vertex 11.0042 2.33901 3
    endloop
  endfacet
  facet normal -0.951056 -0.309017 0
    outer loop
      vertex 11.0042 2.33901 3
      vertex 10.2774 4.57579 10
      vertex 10.2774 4.57579 3
    endloop
  endfacet
  facet normal -0.866025 -0.5 0
    outer loop
      vertex 10.2774 4.57579 10
      vertex 9.10144 6.61258 10
      vertex 10.2774 4.57579 3
    endloop
  endfacet
  facet normal -0.866025 -0.5 0
    outer loop
      vertex 10.2774 4.57579 3
      vertex 9.10144 6.61258 10
      vertex 9.10144 6.61258 3
    endloop
  endfacet
  facet normal -0.743145 -0.669131 0
    outer loop
      vertex 9.10144 6.61258 10
      vertex 7.52772 8.36038 10
      vertex 9.10144 6.61258 3
    endloop
  endfacet
  facet normal -0.743145 -0.669131 0
    outer loop
      vertex 9.10144 6.61258 3
      vertex 7.52772 8.36038 10
      vertex 7.52772 8.36038 3
    endloop
  endfacet
  facet normal -0.587785 -0.809017 0
    outer loop
      vertex 7.52772 8.36038 3
      vertex 7.52772 8.36038 10
      vertex 5.625 9.74279 10
    endloop
  endfacet
  facet normal -0.587785 -0.809017 0
    outer loop
      vertex 5.625 9.74279 3
      vertex 7.52772 8.36038 3
      vertex 5.625 9.74279 10
    endloop
  endfacet
  facet normal -0.406737 -0.913545 0
    outer loop
      vertex 5.625 9.74279 3
      vertex 5.625 9.74279 10
      vertex 3.47644 10.6994 10
    endloop
  endfacet
  facet normal -0.406737 -0.913545 0
    outer loop
      vertex 3.47644 10.6994 3
      vertex 5.625 9.74279 3
      vertex 3.47644 10.6994 10
    endloop
  endfacet
  facet normal -0.207911 -0.978148 0
    outer loop
      vertex 3.47644 10.6994 3
      vertex 3.47644 10.6994 10
      vertex 1.17595 11.1884 10
    endloop
  endfacet
  facet normal -0.207911 -0.978148 0
    outer loop
      vertex 1.17595 11.1884 3
      vertex 3.47644 10.6994 3
      vertex 1.17595 11.1884 10
    endloop
  endfacet
  facet normal 0 -1 0
    outer loop
      vertex 1.17595 11.1884 3
      vertex 1.17595 11.1884 10
      vertex -1.17595 11.1884 10
    endloop
  endfacet
  facet normal 0 -1 0
    outer loop
      vertex -1.17595 11.1884 3
      vertex 1.17595 11.1884 3
      vertex -1.17595 11.1884 10
    endloop
  endfacet
  facet normal 0.207911 -0.978148 0
    outer loop
      vertex -1.17595 11.1884 3
      vertex -1.17595 11.1884 10
      vertex -3.47644 10.6994 10
    endloop
  endfacet
  facet normal 0.207911 -0.978148 0
    outer loop
      vertex -3.47644 10.6994 3
      vertex -1.17595 11.1884 3
      vertex -3.47644 10.6994 10
    endloop
  endfacet
  facet normal 0.406737 -0.913545 0
    outer loop
      vertex -3.47644 10.6994 3
      vertex -3.47644 10.6994 10
      vertex -5.625 9.74279 10
    endloop
  endfacet
  facet normal 0.406737 -0.913545 0
    outer loop
      vertex -5.625 9.74279 3
      vertex -3.47644 10.6994 3
      vertex -5.625 9.74279 10
    endloop
  endfacet
  facet normal 0.587785 -0.809017 0
    outer loop
      vertex -5.625 9.74279 3
      vertex -5.625 9.74279 10
      vertex -7.52772 8.36038 10
    endloop
  endfacet
  facet normal 0.587785 -0.809017 0
    outer loop
      vertex -7.52772 8.36038 3
      vertex -5.625 9.74279 3
      vertex -7.52772 8.36038 10
    endloop
  endfacet
  facet normal 0.743145 -0.669131 0
    outer loop
      vertex -7.52772 8.36038 3
      vertex -7.52772 8.36038 10
      vertex -9.10144 6.61258 10
    endloop
  endfacet
  facet normal 0.743145 -0.669131 0
    outer loop
      vertex -9.10144 6.61258 3
      vertex -7.52772 8.36038 3
      vertex -9.10144 6.61258 10
    endloop
  endfacet
  facet normal 0.866025 -0.5 0
    outer loop
      vertex -9.10144 6.61258 3
      vertex -9.10144 6.61258 10
      vertex -10.2774 4.57579 10
    endloop
  endfacet
  facet normal 0.866025 -0.5 0
    outer loop
      vertex -10.2774 4.57579 3
      vertex -9.10144 6.61258 3
      vertex -10.2774 4.57579 10
    endloop
  endfacet
  facet normal 0.951056 -0.309017 0
    outer loop
      vertex -10.2774 4.57579 3
      vertex -10.2774 4.57579 10
      vertex -11.0042 2.33901 10
    endloop
  endfacet
  facet normal 0.951056 -0.309017 0
    outer loop
      vertex -11.0042 2.33901 3
      vertex -10.2774 4.57579 3
      vertex -11.0042 2.33901 10
    endloop
  endfacet
  facet normal 0.994522 -0.104528 0
    outer loop
      vertex -11.0042 2.33901 3
      vertex -11.0042 2.33901 10
      vertex -11.25 0 10
    endloop
  endfacet
  facet normal 0.994522 -0.104528 0
    outer loop
      vertex -11.25 0 3
      vertex -11.0042 2.33901 3
      vertex -11.25 0 10
    endloop
  endfacet
  facet normal 0 0 1
    outer loop
      vertex -11.0042 -2.33901 3
      vertex -10.2774 -4.57579 3
      vertex -9.10144 -6.61258 3
    endloop
  endfacet
  facet normal 0 0 1
    outer loop
      vertex -5.625 -9.74279 3
      vertex -11.0042 -2.33901 3
      vertex -7.52772 -8.36038 3
    endloop
  endfacet
  facet normal 0 0 1
    outer loop
      vertex -7.52772 -8.36038 3
      vertex -11.0042 -2.33901 3
      vertex -9.10144 -6.61258 3
    endloop
  endfacet
  facet normal 0 0 1
    outer loop
      vertex -8.09017 -5.87785 3
      vertex -11.0042 -2.33901 3
      vertex -5.625 -9.74279 3
    endloop
  endfacet
  facet normal 0 0 1
    outer loop
      vertex -5 -8.66025 3
      vertex -6.69131 -7.43145 3
      vertex -3.47644 -10.6994 3
    endloop
  endfacet
  facet normal 0 0 1
    outer loop
      vertex -1.04529 -9.94522 3
      vertex -3.09017 -9.51056 3
      vertex -1.17595 -11.1884 3
    endloop
  endfacet
  facet normal 0 0 1
    outer loop
      vertex 1.04529 -9.94522 3
      vertex -1.04529 -9.94522 3
      vertex 1.17595 -11.1884 3
    endloop
  endfacet
  facet normal 0 0 1
    outer loop
      vertex 3.09017 -9.51056 3
      vertex 1.04529 -9.94522 3
      vertex 3.47644 -10.6994 3
    endloop
  endfacet
  facet normal 0 0 1
    outer loop
      vertex 5 -8.66025 3
      vertex 3.09017 -9.51056 3
      vertex 5.625 -9.74279 3
    endloop
  endfacet
  facet normal 0 0 1
    outer loop
      vertex 6.69131 -7.43145 3
      vertex 5 -8.66025 3
      vertex 7.52772 -8.36038 3
    endloop
  endfacet
  facet normal 0 0 1
    outer loop
      vertex 8.09017 -5.87785 3
      vertex 6.69131 -7.43145 3
      vertex 9.10144 -6.61258 3
    endloop
  endfacet
  facet normal 0 0 1
    outer loop
      vertex 9.13546 -4.06737 3
      vertex 8.09017 -5.87785 3
      vertex 10.2774 -4.57579 3
    endloop
  endfacet
  facet normal 0 0 1
    outer loop
      vertex 9.78148 -2.07912 3
      vertex 9.13546 -4.06737 3
      vertex 11.0042 -2.33901 3
    endloop
  endfacet
  facet normal 0 0 1
    outer loop
      vertex 10 0 3
      vertex 9.78148 -2.07912 3
      vertex 11.25 0 3
    endloop
  endfacet
  facet normal 0 0 1
    outer loop
      vertex -9.13546 4.06737 3
      vertex -8.09017 5.87785 3
      vertex -7.52772 8.36038 3
    endloop
  endfacet
  facet normal 0 0 1
    outer loop
      vertex -6.69131 7.43145 3
      vertex -5 8.66025 3
      vertex -5.625 9.74279 3
    endloop
  endfacet
  facet normal 0 0 1
    outer loop
      vertex -10.2774 4.57579 3
      vertex -11.0042 -2.33901 3
      vertex -9.10144 6.61258 3
    endloop
  endfacet
  facet normal 0 0 1
    outer loop
      vertex -11.0042 2.33901 3
      vertex -11.0042 -2.33901 3
      vertex -10.2774 4.57579 3
    endloop
  endfacet
  facet normal 0 0 1
    outer loop
      vertex -11.25 0 3
      vertex -11.0042 -2.33901 3
      vertex -11.0042 2.33901 3
    endloop
  endfacet
  facet normal 0 0 1
    outer loop
      vertex -5 8.66025 3
      vertex -3.09017 9.51056 3
      vertex -3.47644 10.6994 3
    endloop
  endfacet
  facet normal 0 0 1
    outer loop
      vertex 9.13546 4.06737 3
      vertex 9.78148 2.07912 3
      vertex 11.0042 2.33901 3
    endloop
  endfacet
  facet normal 0 0 1
    outer loop
      vertex -9.10144 6.61258 3
      vertex -11.0042 -2.33901 3
      vertex -9.78148 2.07912 3
    endloop
  endfacet
  facet normal 0 0 1
    outer loop
      vertex -9.10144 6.61258 3
      vertex -9.13546 4.06737 3
      vertex -7.52772 8.36038 3
    endloop
  endfacet
  facet normal 0 0 1
    outer loop
      vertex -9.10144 6.61258 3
      vertex -9.78148 2.07912 3
      vertex -9.13546 4.06737 3
    endloop
  endfacet
  facet normal 0 0 1
    outer loop
      vertex -7.52772 8.36038 3
      vertex -8.09017 5.87785 3
      vertex -5.625 9.74279 3
    endloop
  endfacet
  facet normal 0 0 1
    outer loop
      vertex -8.09017 5.87785 3
      vertex -6.69131 7.43145 3
      vertex -5.625 9.74279 3
    endloop
  endfacet
  facet normal 0 0 1
    outer loop
      vertex -5.625 9.74279 3
      vertex -5 8.66025 3
      vertex -3.47644 10.6994 3
    endloop
  endfacet
  facet normal 0 0 1
    outer loop
      vertex -10 0 3
      vertex -9.78148 2.07912 3
      vertex -11.0042 -2.33901 3
    endloop
  endfacet
  facet normal 0 0 1
    outer loop
      vertex -3.47644 10.6994 3
      vertex -3.09017 9.51056 3
      vertex -1.17595 11.1884 3
    endloop
  endfacet
  facet normal 0 0 1
    outer loop
      vertex -1.17595 11.1884 3
      vertex -1.04529 9.94522 3
      vertex 1.17595 11.1884 3
    endloop
  endfacet
  facet normal 0 0 1
    outer loop
      vertex 1.17595 11.1884 3
      vertex 1.04529 9.94522 3
      vertex 3.47644 10.6994 3
    endloop
  endfacet
  facet normal 0 0 1
    outer loop
      vertex 3.47644 10.6994 3
      vertex 3.09017 9.51056 3
      vertex 5.625 9.74279 3
    endloop
  endfacet
  facet normal 0 0 1
    outer loop
      vertex 5.625 9.74279 3
      vertex 5 8.66025 3
      vertex 7.52772 8.36038 3
    endloop
  endfacet
  facet normal 0 0 1
    outer loop
      vertex -9.13546 -4.06737 3
      vertex -9.78148 -2.07912 3
      vertex -11.0042 -2.33901 3
    endloop
  endfacet
  facet normal 0 0 1
    outer loop
      vertex 7.52772 8.36038 3
      vertex 6.69131 7.43145 3
      vertex 9.10144 6.61258 3
    endloop
  endfacet
  facet normal 0 0 1
    outer loop
      vertex 9.10144 6.61258 3
      vertex 8.09017 5.87785 3
      vertex 10.2774 4.57579 3
    endloop
  endfacet
  facet normal 0 0 1
    outer loop
      vertex 10.2774 4.57579 3
      vertex 9.13546 4.06737 3
      vertex 11.0042 2.33901 3
    endloop
  endfacet
  facet normal 0 0 1
    outer loop
      vertex 11.0042 2.33901 3
      vertex 9.78148 2.07912 3
      vertex 11.25 0 3
    endloop
  endfacet
  facet normal 0 0 1
    outer loop
      vertex 9.78148 2.07912 3
      vertex 10 0 3
      vertex 11.25 0 3
    endloop
  endfacet
  facet normal 0 0 1
    outer loop
      vertex 11.25 0 3
      vertex 9.78148 -2.07912 3
      vertex 11.0042 -2.33901 3
    endloop
  endfacet
  facet normal 0 0 1
    outer loop
      vertex 11.0042 -2.33901 3
      vertex 9.13546 -4.06737 3
      vertex 10.2774 -4.57579 3
    endloop
  endfacet
  facet normal 0 0 1
    outer loop
      vertex 10.2774 -4.57579 3
      vertex 8.09017 -5.87785 3
      vertex 9.10144 -6.61258 3
    endloop
  endfacet
  facet normal 0 0 1
    outer loop
      vertex 9.10144 -6.61258 3
      vertex 6.69131 -7.43145 3
      vertex 7.52772 -8.36038 3
    endloop
  endfacet
  facet normal 0 0 1
    outer loop
      vertex 7.52772 -8.36038 3
      vertex 5 -8.66025 3
      vertex 5.625 -9.74279 3
    endloop
  endfacet
  facet normal 0 0 1
    outer loop
      vertex 5.625 -9.74279 3
      vertex 3.09017 -9.51056 3
      vertex 3.47644 -10.6994 3
    endloop
  endfacet
  facet normal 0 0 1
    outer loop
      vertex 3.47644 -10.6994 3
      vertex 1.04529 -9.94522 3
      vertex 1.17595 -11.1884 3
    endloop
  endfacet
  facet normal 0 0 1
    outer loop
      vertex 1.17595 -11.1884 3
      vertex -1.04529 -9.94522 3
      vertex -1.17595 -11.1884 3
    endloop
  endfacet
  facet normal 0 0 1
    outer loop
      vertex -1.17595 -11.1884 3
      vertex -3.09017 -9.51056 3
      vertex -3.47644 -10.6994 3
    endloop
  endfacet
  facet normal 0 0 1
    outer loop
      vertex -3.09017 -9.51056 3
      vertex -5 -8.66025 3
      vertex -3.47644 -10.6994 3
    endloop
  endfacet
  facet normal 0 0 1
    outer loop
      vertex -3.47644 -10.6994 3
      vertex -6.69131 -7.43145 3
      vertex -5.625 -9.74279 3
    endloop
  endfacet
  facet normal 0 0 1
    outer loop
      vertex -6.69131 -7.43145 3
      vertex -8.09017 -5.87785 3
      vertex -5.625 -9.74279 3
    endloop
  endfacet
  facet normal 0 0 1
    outer loop
      vertex -8.09017 -5.87785 3
      vertex -9.13546 -4.06737 3
      vertex -11.0042 -2.33901 3
    endloop
  endfacet
  facet normal 0 0 1
    outer loop
      vertex -3.09017 9.51056 3
      vertex -1.04529 9.94522 3
      vertex -1.17595 11.1884 3
    endloop
  endfacet
  facet normal 0 0 1
    outer loop
      vertex -1.04529 9.94522 3
      vertex 1.04529 9.94522 3
      vertex 1.17595 11.1884 3
    endloop
  endfacet
  facet normal 0 0 1
    outer loop
      vertex 1.04529 9.94522 3
      vertex 3.09017 9.51056 3
      vertex 3.47644 10.6994 3
    endloop
  endfacet
  facet normal 0 0 1
    outer loop
      vertex 3.09017 9.51056 3
      vertex 5 8.66025 3
      vertex 5.625 9.74279 3
    endloop
  endfacet
  facet normal 0 0 1
    outer loop
      vertex 5 8.66025 3
      vertex 6.69131 7.43145 3
      vertex 7.52772 8.36038 3
    endloop
  endfacet
  facet normal 0 0 1
    outer loop
      vertex 6.69131 7.43145 3
      vertex 8.09017 5.87785 3
      vertex 9.10144 6.61258 3
    endloop
  endfacet
  facet normal 0 0 1
    outer loop
      vertex 8.09017 5.87785 3
      vertex 9.13546 4.06737 3
      vertex 10.2774 4.57579 3
    endloop
  endfacet
  facet normal 0 0 1
    outer loop
      vertex -9.78148 -2.07912 3
      vertex -10 0 3
      vertex -11.0042 -2.33901 3
    endloop
  endfacet
endsolid OpenSCAD_Model
